<?xml version="1.0" encoding="utf-8"?>
<!-- Generator: Adobe Illustrator 23.1.0, SVG Export Plug-In . SVG Version: 6.00 Build 0)  -->
<svg version="1.1" id="Layer_1" xmlns="http://www.w3.org/2000/svg" xmlns:xlink="http://www.w3.org/1999/xlink" x="0px" y="0px"
	 viewBox="0 0 1800 2880" style="enable-background:new 0 0 1800 2880;" xml:space="preserve">
<style type="text/css">
	.st0{fill:#D1DEDE;}
	.st1{fill:#8EA604;}
	.st2{fill:#F5BB00;}
	.st3{fill:#897C80;stroke:#FFFFFF;stroke-width:2;stroke-miterlimit:10;}
	.st4{fill:#8EA604;stroke:#FFFFFF;stroke-width:2;stroke-miterlimit:10;}
	.st5{fill:#897C80;}
	.st6{fill:#D1DEDE;stroke:#000000;stroke-miterlimit:10;}
	.st7{fill:#F5BB00;stroke:#000000;stroke-miterlimit:10;}
	.st8{fill:none;stroke:#000000;stroke-miterlimit:10;}
	.st9{fill:url(#SVGID_1_);}
	.st10{fill:#FFFFFF;stroke:#897C80;stroke-width:7;stroke-miterlimit:10;}
	.st11{fill:#897C80;stroke:#534741;stroke-width:3;stroke-miterlimit:10;}
	.st12{fill:none;stroke:#897C80;stroke-width:7;stroke-miterlimit:10;}
	.st13{fill:#F5BB00;stroke:#897C80;stroke-width:7;stroke-miterlimit:10;}
	.st14{fill:none;}
	.st15{fill:url(#SVGID_2_);}
	.st16{fill:#FFFFFF;}
	.st17{font-family:'KenyanCoffeeRg-Regular';}
	.st18{font-size:75px;}
	.st19{letter-spacing:2;}
	.st20{font-size:130px;}
	.st21{letter-spacing:4;}
	.st22{fill:#D3DDDA;}
	.st23{fill:#DADDD3;}
	.st24{fill:#D3DDD3;}
	.st25{font-family:'Bainsley';}
	.st26{font-size:67px;}
	.st27{fill:#897C80;stroke:#897C80;stroke-miterlimit:10;}
</style>
<linearGradient id="SVGID_1_" gradientUnits="userSpaceOnUse" x1="1102" y1="2816" x2="1102" y2="-68">
	<stop  offset="0" style="stop-color:#FFFFFF"/>
	<stop  offset="0.4741" style="stop-color:#FDFEFE"/>
	<stop  offset="0.6812" style="stop-color:#F6F8F8"/>
	<stop  offset="0.8362" style="stop-color:#E9EFEF"/>
	<stop  offset="0.9647" style="stop-color:#D7E3E3"/>
	<stop  offset="1" style="stop-color:#D1DEDE"/>
</linearGradient>
<polygon class="st9" points="2544,-68 2544,2816 -340,2816 -340,-68 "/>
<path class="st5" d="M1054.01,1061h566.99c54.45,0,99.01-44.55,99.01-99.01V777.01c0-54.45-44.55-99.01-99.01-99.01h-566.99
	c-54.45,0-99.01,44.55-99.01,99.01v184.99C955,1016.45,999.55,1061,1054.01,1061z"/>
<path class="st10" d="M618.38,391.22c-55.05-24.16-84.76-95.86-71.06-157.35c20.08-90.14,141-116.26,206.52-85.62
	c7.86,3.67,32.08,16.18,48.85,43.97c25.97,43.01,19.14,97.89,0,134.21C770.92,386.72,690.58,422.91,618.38,391.22z"/>
<path class="st11" d="M742.73,240.81c-8.58,0-15.54-7.25-15.54-16.2c0-4.52,1.78-8.6,4.64-11.53c-7.59-5.85-16.85-9.29-26.84-9.29
	c-25.75,0-46.63,22.79-46.63,50.91s20.88,50.91,46.63,50.91c25.75,0,46.63-22.79,46.63-50.91c0-5.4-0.78-10.59-2.2-15.47
	C747.39,240.22,745.13,240.81,742.73,240.81z"/>
<line class="st12" x1="611.71" y1="152.87" x2="569.52" y2="83.45"/>
<line class="st12" x1="669.45" y1="134.36" x2="665.01" y2="58"/>
<path class="st10" d="M740.51,143.62c3.47-11.36,7.17-22.94,11.1-34.71c5.07-15.16,10.27-29.82,15.54-43.97"/>
<path class="st5" d="M867.13,309.23c-14.29,0-14.31,23.14,0,23.14C881.42,332.37,881.45,309.23,867.13,309.23z"/>
<path class="st5" d="M906.85,266.8c-14.29,0-14.31,23.14,0,23.14C921.14,289.94,921.17,266.8,906.85,266.8z"/>
<path class="st5" d="M953.85,316.61c-0.45-1.43-1.21-2.68-2.3-3.72c-1.01-1.13-2.2-1.93-3.57-2.39c-1.32-0.72-2.75-1.06-4.28-1
	c-0.98,0.14-1.97,0.28-2.95,0.41c-1.88,0.55-3.51,1.54-4.9,2.98c-0.58,0.78-1.16,1.56-1.74,2.34c-1,1.8-1.51,3.75-1.52,5.84v1.56
	c-0.06,1.59,0.26,3.08,0.96,4.46c0.45,1.43,1.21,2.68,2.3,3.72c1.01,1.13,2.2,1.93,3.57,2.39c1.32,0.72,2.75,1.06,4.28,1
	c0.98-0.14,1.97-0.28,2.95-0.41c1.88-0.55,3.51-1.54,4.9-2.98c0.58-0.78,1.16-1.56,1.74-2.34c1-1.8,1.51-3.75,1.52-5.84v-1.56
	C954.86,319.47,954.54,317.98,953.85,316.61z"/>
<path class="st13" d="M820.45,388.9c13.6-40.91,161.11-39.39,173.21,0c1.19,3.87,0.73,7,0,11.57c-5.14,32.3-40.41,67.25-82.16,69.42
	c-44.33,2.3-85.04-32.91-91.05-67.11C819.56,397.71,818.86,393.7,820.45,388.9z"/>
<path class="st12" d="M819.5,397.5c58,0,88,51,88,51s24-49,87-51"/>
<path class="st10" d="M1182.62,399.15c55.05-24.16,84.76-95.86,71.06-157.35c-20.08-90.14-141-116.26-206.52-85.62
	c-7.86,3.67-32.08,16.18-48.85,43.97c-25.97,43.01-19.14,97.89,0,134.21C1030.08,394.66,1110.42,430.85,1182.62,399.15z"/>
<path class="st11" d="M1069.37,241.8c8.58,0,15.54-7.25,15.54-16.2c0-4.52-1.78-8.6-4.64-11.53c7.59-5.85,16.85-9.29,26.84-9.29
	c25.75,0,46.63,22.79,46.63,50.91s-20.88,50.91-46.63,50.91s-46.63-22.79-46.63-50.91c0-5.4,0.78-10.59,2.2-15.47
	C1064.72,241.22,1066.98,241.8,1069.37,241.8z"/>
<line class="st12" x1="1189.29" y1="160.81" x2="1231.48" y2="91.39"/>
<line class="st12" x1="1131.55" y1="142.3" x2="1135.99" y2="65.94"/>
<path class="st10" d="M1060.49,151.56c-3.47-11.36-7.17-22.94-11.1-34.71c-5.07-15.16-10.27-29.82-15.54-43.97"/>
<path class="st14" d="M0,1915c0,65.78,157.44,119,352,119"/>
<circle class="st2" cx="1555" cy="653" r="150"/>
<path class="st2" d="M1685,2669c28.56-73.94-55.41-202.22-138-211c-114.61-12.19-192.07,209.44-308,187
	c-62.86-12.17-82.08-85.46-134-77c-45,7.33-89.03,71.91-77,113C1063.79,2803.23,1626.03,2821.69,1685,2669z"/>
<path class="st2" d="M60,2689c-20.35-60.22,26.85-155.08,74-162c31.57-4.63,63.78,30.07,73,40c17.49,18.84,24.64,36.89,52,102l0,0
	l0,0l0,0l0,0c29.41-2.56,44.11-3.84,45-4c46.51-8.16,50.16-55.68,81-57c41.22-1.77,81.26,81.09,85,89c13.25,28.02,10.86,38.4,25,49
	c22.92,17.2,46.09,2.59,89,12c30.19,6.62,66.27,24.27,65,33C644.3,2823.25,113.07,2846.02,60,2689z"/>
<path class="st2" d="M1689,1113c-57.21-101.46-85.81-152.2-126-158c-74.54-10.77-160.34,96.88-170,109
	c-23.44,29.41-26.19,43.36-45,49c-58.07,17.43-115.05-90.52-162-73c-29.67,11.07-16.31,57.7-65,106c-35.13,34.85-65.52,33.82-65,48
	c0.98,26.99,111.97,56.53,220,49c59.03-4.11,57.68-15.15,113-16c79.33-1.22,94.21,21.29,174,24c36.36,1.24,138.82,4.72,159-41
	C1726.43,1199.97,1728.72,1183.44,1689,1113z"/>
<path class="st2" d="M282,2579c-37.45-76.36,46.53-216.4,122-219c69.67-2.4,93.67,113.65,166,110c61.65-3.11,65.19-88.47,151-126
	c88.71-38.8,222.95-7.93,263,73c26.72,53.99,6.85,120.81,4,130c-10.81,34.79-17.35,55.86-36,65c-52.98,25.96-144.1-73.53-256-93
	c-13.83-2.41-36.81-5.13-53,8c-17.39,14.1-12.62,34.89-20,57c-20.04,60.07-118.03,94.82-194,85c-36.45-4.71-63.21-19.08-74-25
	C340.48,2636.03,298.74,2613.14,282,2579z"/>
<linearGradient id="SVGID_2_" gradientUnits="userSpaceOnUse" x1="187.2241" y1="2061.9224" x2="187.2241" y2="502.8158">
	<stop  offset="0" style="stop-color:#FFFFFF"/>
	<stop  offset="1" style="stop-color:#D1DEDE"/>
</linearGradient>
<path class="st15" d="M0,690c131.94-123.79,379.92-246.34,521-156c118.5,75.88,115.82,272.66,113,381
	c-14.81,567.98-437.98,1202.79-663,1143C-274.04,1992.89-406.66,1071.52,0,690z"/>
<path class="st1" d="M682,1357H229c-39.6,0-72-32.4-72-72v-100c0-39.6,32.4-72,72-72h453c39.6,0,72,32.4,72,72v100
	C754,1324.6,721.6,1357,682,1357z"/>
<g>
	<path class="st16" d="M1482,680.24c1.23-2.88,3.49-3.69,6.49-3.68c44.31,0.05,88.62,0.03,132.92,0.04c0.85,0,1.72,0.02,2.55,0.18
		c2.33,0.46,3.93,2.61,3.8,4.97c-0.14,2.37-1.97,4.28-4.35,4.5c-0.61,0.06-1.23,0.06-1.85,0.06c-44.45,0-88.9-0.01-133.35,0.04
		c-3.01,0-5.15-0.92-6.21-3.83C1482,681.76,1482,681,1482,680.24z"/>
	<path class="st16" d="M1507.06,666.83c-3.1,0-6.41,0-9.72,0c2.39-22.52,22.4-45.84,52.5-48.28c32.32-2.63,58.82,19.75,62.73,48.24
		c-3.35,0-6.69,0-9.85,0c-7.18-24.01-22.55-37.66-48.09-38.73C1529.35,629.36,1514.16,642.98,1507.06,666.83z"/>
	<path class="st16" d="M1554.96,696.06c20.5,0,40.99,0,61.49,0c0.71,0,1.43,0,2.13,0.07c2.45,0.26,4.27,2.24,4.33,4.67
		c0.05,2.36-1.62,4.41-3.98,4.83c-0.65,0.12-1.32,0.15-1.98,0.15c-41.37,0.01-82.75,0.01-124.12,0.01c-0.09,0-0.19,0-0.28,0
		c-3.42-0.03-5.66-1.94-5.68-4.85c-0.02-2.92,2.19-4.88,5.61-4.88c11.29-0.01,22.58-0.01,33.88-0.01
		C1535.89,696.06,1545.42,696.06,1554.96,696.06z"/>
	<path class="st16" d="M1554.88,715.52c15.98,0,31.97,0,47.95,0c2.77,0,4.66,1.24,5.28,3.43c0.85,2.96-1.07,5.85-4.13,6.23
		c-0.42,0.05-0.85,0.04-1.28,0.04c-31.87,0-63.74,0-95.61,0c-3.12,0-5.05-1.41-5.54-4.01c-0.52-2.75,1.46-5.4,4.24-5.65
		c0.61-0.06,1.23-0.04,1.85-0.04C1523.39,715.52,1539.13,715.52,1554.88,715.52z"/>
	<path class="st16" d="M1550.04,598.82c0-1.61-0.04-3.22,0.01-4.83c0.08-2.78,2.24-4.89,4.91-4.85c2.61,0.04,4.72,2.13,4.76,4.85
		c0.05,3.27,0.06,6.54,0,9.81c-0.05,2.74-2.15,4.74-4.83,4.74c-2.67,0-4.75-2-4.83-4.74C1550,602.14,1550.05,600.48,1550.04,598.82z
		"/>
	<path class="st16" d="M1505.11,626.53c-0.32,2.05-1.21,3.49-2.9,4.36c-1.75,0.89-3.62,0.86-5.06-0.46
		c-2.72-2.49-5.36-5.09-7.83-7.83c-1.68-1.86-1.3-4.72,0.53-6.42c1.77-1.64,4.57-1.83,6.35-0.18c2.6,2.42,5.11,4.94,7.52,7.54
		C1504.41,624.32,1504.65,625.52,1505.11,626.53z"/>
	<path class="st16" d="M1604.91,625.9c0.29-0.56,0.67-1.83,1.47-2.72c2.17-2.38,4.48-4.62,6.81-6.85c2.04-1.96,5-1.92,6.89-0.01
		c1.86,1.88,1.93,4.75,0,6.78c-2.28,2.4-4.63,4.74-7.04,7.03c-1.51,1.43-3.36,1.73-5.27,0.86
		C1605.93,630.14,1604.99,628.64,1604.91,625.9z"/>
</g>
<g>
	<path class="st16" d="M385,1893.14c-0.25,0.81-0.46,1.64-0.77,2.43c-2.02,5.15-7.41,8.52-13.77,8.56c-5.4,0.04-10.8,0.01-16.2,0.01
		c-23.44,0-46.89,0.01-70.33,0c-7.21,0-12.9-3.84-14.54-9.75c-2.08-7.51,4.39-14.99,13.3-15.36c0.45-0.02,0.91-0.02,1.36-0.02
		c28.65,0,57.31,0,85.96,0c7.31,0,13.04,3.88,14.65,9.89c0.1,0.37,0.23,0.74,0.34,1.11C385,1891.05,385,1892.09,385,1893.14z
		 M326.96,1897.86c14.19,0,28.39,0,42.58,0c0.64,0,1.29,0,1.92-0.08c4.12-0.51,6.88-3.78,6.15-7.28c-0.65-3.17-3.61-5.2-7.65-5.2
		c-28.65,0-57.3,0-85.95,0c-0.64,0-1.29,0.04-1.91,0.15c-4.8,0.81-7.3,5.44-4.92,9.14c1.49,2.31,3.86,3.28,6.86,3.28
		C298.34,1897.85,312.65,1897.86,326.96,1897.86z"/>
	<path class="st16" d="M385,1924.57c-0.25,0.81-0.46,1.64-0.77,2.43c-2.02,5.15-7.41,8.52-13.77,8.56c-5.4,0.04-10.8,0.01-16.2,0.01
		c-23.44,0-46.89,0.01-70.33,0c-7.21,0-12.9-3.84-14.54-9.75c-2.08-7.51,4.39-14.99,13.3-15.36c0.45-0.02,0.91-0.02,1.36-0.02
		c28.65,0,57.31,0,85.96,0c7.31,0,13.04,3.88,14.65,9.89c0.1,0.37,0.23,0.74,0.34,1.11C385,1922.47,385,1923.52,385,1924.57z
		 M327,1916.71c-14.19,0-28.39,0-42.58,0.01c-0.79,0-1.59,0.02-2.36,0.16c-4.75,0.83-7.23,5.41-4.9,9.08
		c1.52,2.4,3.97,3.33,7.05,3.33c28.54-0.01,57.08-0.01,85.61-0.01c0.71,0,1.44-0.04,2.14-0.16c4.11-0.71,6.65-4.34,5.51-7.82
		c-0.95-2.87-3.74-4.58-7.54-4.58C355.61,1916.71,341.3,1916.71,327,1916.71z"/>
	<path class="st16" d="M385,1955.99c-0.25,0.81-0.46,1.64-0.77,2.43c-2.02,5.15-7.41,8.52-13.77,8.56c-5.4,0.04-10.8,0.01-16.2,0.01
		c-23.44,0-46.89,0.01-70.33,0c-7.21,0-12.9-3.84-14.54-9.75c-2.08-7.51,4.39-14.99,13.3-15.36c0.45-0.02,0.91-0.02,1.36-0.02
		c28.65,0,57.31,0,85.96,0c7.31,0,13.04,3.88,14.65,9.89c0.1,0.37,0.23,0.74,0.34,1.11C385,1953.9,385,1954.94,385,1955.99z
		 M327.12,1948.14c-14.23,0-28.46,0-42.69,0.01c-0.79,0-1.59,0.02-2.36,0.16c-4.75,0.81-7.24,5.4-4.92,9.08
		c1.52,2.4,3.96,3.34,7.04,3.34c28.54-0.01,57.08-0.01,85.61-0.01c0.71,0,1.44-0.03,2.14-0.15c4.16-0.71,6.69-4.38,5.48-7.91
		c-0.97-2.83-3.73-4.5-7.5-4.5C355.66,1948.13,341.39,1948.14,327.12,1948.14z"/>
</g>
<g>
	<g>
		<path class="st16" d="M196,1206.86c0.37-1.56,0.59-3.17,1.12-4.67c2.06-5.85,6.01-9.96,11.72-12.38c0.29-0.12,0.59-0.25,1.03-0.44
			c-0.33-0.5-0.63-0.96-0.93-1.42c-5.02-7.72-6.85-16.17-5.7-25.28c0.9-7.18,3.6-13.6,8.42-19.02c6.78-7.63,15.26-11.34,25.52-10.2
			c7.5,0.83,13.73,4.38,18.64,10.04c7.23,8.34,9.85,18.13,8.55,29.02c-0.7,5.86-2.76,11.21-6.12,16.06
			c-0.12,0.18-0.24,0.36-0.35,0.54c-0.03,0.06-0.04,0.14-0.01,0.01c2.1,1.31,4.3,2.39,6.17,3.89c4.81,3.86,7.33,9,7.51,15.16
			c0.14,4.86,0.11,9.73,0.02,14.6c-0.19,10.38-7.58,18.67-17.86,20.17c-0.2,0.03-0.39,0.13-0.59,0.2c-12.89,0-25.77,0-38.66,0
			c-0.16-0.07-0.31-0.16-0.48-0.19c-8.91-1.39-15.26-7.13-17.45-15.8c-0.21-0.82-0.36-1.65-0.54-2.48
			C196,1218.74,196,1212.8,196,1206.86z M233.8,1236.28c4.54,0,9.09,0.06,13.63-0.03c1.74-0.03,3.51-0.22,5.19-0.65
			c6.74-1.72,12.31-7.62,12.12-15.46c-0.08-3.07,0.02-6.15-0.03-9.23c-0.02-1.14-0.09-2.3-0.34-3.4c-1.39-5.94-5.34-9.5-10.89-11.55
			c-1.13-0.42-1.99-0.31-3.02,0.45c-9.96,7.34-23.37,7.34-33.33,0c-1.03-0.76-1.92-0.92-3.02-0.44c-0.16,0.07-0.34,0.11-0.5,0.18
			c-5.92,2.37-9.99,6.42-10.6,12.95c-0.4,4.36-0.17,8.79-0.03,13.19c0.07,2.27,0.93,4.4,2.2,6.31c3.47,5.16,8.44,7.56,14.55,7.67
			C224.43,1236.34,229.11,1236.28,233.8,1236.28z M257.88,1167.55c-0.28-8.87-3.21-16.52-10.13-22.34
			c-8.72-7.35-21.63-6.65-29.61,1.5c-4.57,4.67-7.31,10.22-8.07,16.67c-1.23,10.52,1.66,19.64,9.9,26.63
			c7.96,6.75,19.65,6.69,27.66,0.01C254.65,1184.17,257.62,1176.46,257.88,1167.55z"/>
		<path class="st16" d="M288.89,1153.82c4.51,0,9.02-0.03,13.52,0.01c2.59,0.02,4.26,2.47,3.26,4.75c-0.62,1.42-1.78,2.1-3.32,2.1
			c-3.65,0.01-7.3,0-10.95,0c-5.4,0-10.8,0.02-16.21-0.01c-2.61-0.01-4.3-2.42-3.34-4.71c0.62-1.47,1.81-2.16,3.4-2.15
			C279.81,1153.82,284.35,1153.82,288.89,1153.82z"/>
		<path class="st16" d="M288.89,1174.44c4.51,0,9.02-0.02,13.52,0.01c2.6,0.02,4.26,2.47,3.27,4.75c-0.62,1.42-1.77,2.1-3.32,2.11
			c-3.47,0.01-6.94,0-10.41,0c-5.58,0-11.16,0.02-16.74-0.01c-2.61-0.01-4.31-2.41-3.34-4.7c0.62-1.47,1.8-2.16,3.39-2.16
			C279.8,1174.44,284.35,1174.44,288.89,1174.44z"/>
		<path class="st16" d="M292.33,1195.05c3.26,0,6.51-0.01,9.77,0c2.3,0.01,3.85,1.39,3.86,3.41c0.01,2.03-1.54,3.45-3.82,3.46
			c-6.62,0.01-13.24,0.01-19.85,0c-2.27,0-3.83-1.43-3.81-3.46c0.02-1.99,1.55-3.39,3.76-3.4
			C285.61,1195.04,288.97,1195.05,292.33,1195.05z"/>
		<path class="st16" d="M292.2,1222.54c-3.29,0-6.58,0.01-9.87,0c-2.29-0.01-3.84-1.4-3.84-3.43c0-2.03,1.55-3.44,3.83-3.44
			c6.62-0.01,13.24-0.01,19.85,0c2.26,0,3.82,1.45,3.79,3.48c-0.03,1.99-1.56,3.38-3.78,3.39
			C298.85,1222.55,295.53,1222.54,292.2,1222.54z"/>
	</g>
</g>
<g>
	<path class="st1" d="M1579.33,39l-19.46,52.55l21.99,60.83h-18.26l-18.34-54.76h-0.73v68.03H1530V49.22h14.53V87.8h0.73l16.39-48.8
		H1579.33z"/>
	<path class="st1" d="M1607.63,152.37h-29.17L1576.05,39h29.04l2.41,11.62h-14.2v14.84h13.81v11.74h-13.81v50.33h14.32V152.37z"/>
	<path class="st1" d="M1657.49,197h-52.25V83.63h13.81v100.98h11.07v-78.07h13.55v78.07l3.95,0.12c3.62,0.11,6.61-2.79,6.61-6.41
		V98.1l14.47-3.05l-0.25,92.3C1668.79,192.83,1663.44,197.18,1657.49,197z"/>
	<path class="st1" d="M1681.26,165.64v-35.98h-12.52L1667,152l-12.71,0.37V70.55c0-4.65,0.28-8.39,0.84-11.23
		c0.56-2.84,1.61-5.01,3.16-6.52c1.55-1.5,3.63-2.49,6.26-2.97c2.62-0.47,6-0.71,10.13-0.71c4.3,0,7.85,0.26,10.65,0.77
		c2.79,0.52,4.99,1.53,6.58,3.03c1.59,1.51,2.69,3.66,3.29,6.45c0.6,2.8,0.9,6.52,0.9,11.16v95.09H1681.26z M1674.94,62.42
		c-1.29,0-2.35,0.11-3.16,0.32c-0.82,0.22-1.46,0.6-1.94,1.16c-0.47,0.56-0.77,1.38-0.9,2.45c-0.13,1.08-0.19,2.47-0.19,4.19v37.19
		h12.52V70.55c0-1.72-0.09-3.12-0.26-4.19c-0.17-1.08-0.47-1.89-0.9-2.45c-0.43-0.56-1.08-0.95-1.94-1.16
		C1677.3,62.53,1676.23,62.42,1674.94,62.42z"/>
</g>
<text transform="matrix(1 0 0 1 1158.5913 781.2813)" class="st16 st17 st18 st19">ПОГОДА</text>
<text transform="matrix(1 0 0 1 351.176 1215.9915)"><tspan x="0" y="0" class="st16 st17 st18 st19">ИВАН ИВАНОВ</tspan><tspan x="0" y="90" class="st16 st17 st18 st19">3 КУРС</tspan></text>
<text transform="matrix(1 0 0 1 942.176 1347.9915)" class="st1 st17 st18 st19">РАСПИСАНИЕ НА СЕГОДНЯ:</text>
<text transform="matrix(1 0 0 1 455.176 1953.9915)" class="st16 st17 st18 st19">ПОГОДА</text>
<text transform="matrix(1 0 0 1 1038.0425 932.6338)" class="st16 st17 st20 st21">+19</text>
<path class="st0" d="M792.41,1862H267.59c-36.78,0-66.59-29.81-66.59-66.59v-238.82c0-36.78,29.81-66.59,66.59-66.59h524.82
	c36.78,0,66.59,29.81,66.59,66.59v238.82C859,1832.19,829.19,1862,792.41,1862z"/>
<path class="st22" d="M1577.06,1862h-528.11c-35.87,0-64.94-29.08-64.94-64.94v-242.11c0-35.87,29.08-64.94,64.94-64.94h528.11
	c35.87,0,64.94,29.08,64.94,64.94v242.11C1642,1832.92,1612.92,1862,1577.06,1862z"/>
<path class="st23" d="M1568.49,2305h-528.97c-35.63,0-64.51-28.88-64.51-64.51v-242.97c0-35.63,28.88-64.51,64.51-64.51h528.97
	c35.63,0,64.51,28.88,64.51,64.51v242.97C1633,2276.12,1604.12,2305,1568.49,2305z"/>
<path class="st24" d="M792.84,2305H267.16c-36.54,0-66.16-29.62-66.16-66.16v-239.68c0-36.54,29.62-66.16,66.16-66.16h525.68
	c36.54,0,66.16,29.62,66.16,66.16v239.68C859,2275.38,829.38,2305,792.84,2305z"/>
<text transform="matrix(1 0 0 1 364.7637 1675.9717)"><tspan x="0" y="0" class="st1 st25 st26">Креативное </tspan><tspan x="-56.33" y="80.4" class="st1 st25 st26">проектирование</tspan></text>
<text transform="matrix(1 0 0 1 398.7729 1584.0283)" class="st27 st17 st18">11:10 - 12:30</text>
<text transform="matrix(1 0 0 1 1184.3311 1586.8436)" class="st27 st17 st18">11:10 - 12:30</text>
<text transform="matrix(1 0 0 1 1158.8311 2044.3435)" class="st27 st17 st18">11:10 - 12:30</text>
<text transform="matrix(1 0 0 1 398.8311 2044.3435)" class="st27 st17 st18">11:10 - 12:30</text>
<text transform="matrix(1 0 0 1 1144.3877 1678.6127)"><tspan x="0" y="0" class="st1 st25 st26">Креативное </tspan><tspan x="-56.33" y="80.4" class="st1 st25 st26">проектирование</tspan></text>
<text transform="matrix(1 0 0 1 1132.8877 2139.1128)"><tspan x="0" y="0" class="st1 st25 st26">Креативное </tspan><tspan x="-56.33" y="80.4" class="st1 st25 st26">проектирование</tspan></text>
<text transform="matrix(1 0 0 1 364.8877 2139.1128)"><tspan x="0" y="0" class="st1 st25 st26">Креативное </tspan><tspan x="-56.33" y="80.4" class="st1 st25 st26">проектирование</tspan></text>
<text transform="matrix(1 0 0 1 1268.3379 857.5488)"><tspan x="0" y="0" class="st0 st25 st26">облачно, </tspan><tspan x="0" y="80.4" class="st0 st25 st26">без осадков</tspan></text>
</svg>
