<?xml version="1.0" encoding="utf-8"?>
<!-- Generator: Adobe Illustrator 24.2.3, SVG Export Plug-In . SVG Version: 6.00 Build 0)  -->
<svg version="1.1" id="Слой_1" xmlns="http://www.w3.org/2000/svg" xmlns:xlink="http://www.w3.org/1999/xlink" x="0px" y="0px"
	 viewBox="0 0 725.67 345.83" style="enable-background:new 0 0 725.67 345.83;" xml:space="preserve">
<style type="text/css">
	.st0{fill:#F5BC07;}
</style>
<path class="st0" d="M9.55,252.92c-37.45-76.36,46.53-216.4,122-219c69.67-2.4,93.67,113.65,166,110c61.65-3.11,65.19-88.47,151-126
	c88.71-38.8,222.95-7.93,263,73c26.72,53.99,6.85,120.81,4,130c-10.81,34.79-17.35,55.86-36,65c-52.98,25.96-144.1-73.53-256-93
	c-13.83-2.41-36.81-5.13-53,8c-17.39,14.1-12.62,34.89-20,57c-20.04,60.07-118.03,94.82-194,85c-36.45-4.71-63.21-19.08-74-25
	C68.03,309.95,26.29,287.06,9.55,252.92z"/>
</svg>
